<?xml version="1.0" encoding="UTF-8" standalone="no"?>
<!DOCTYPE svg PUBLIC "-//W3C//DTD SVG 1.1//EN"
 "http://www.w3.org/Graphics/SVG/1.1/DTD/svg11.dtd">
<!-- Generated by graphviz version 2.43.0 (0)
 -->
<!-- Title: G Pages: 1 -->
<svg width="346pt" height="310pt"
 viewBox="0.00 0.00 346.50 310.42" xmlns="http://www.w3.org/2000/svg" xmlns:xlink="http://www.w3.org/1999/xlink">
<g id="graph0" class="graph" transform="scale(1 1) rotate(0) translate(4 306.42)">
<title>G</title>
<polygon fill="white" stroke="transparent" points="-4,4 -4,-306.42 342.5,-306.42 342.5,4 -4,4"/>
<!-- 1 -->
<g id="node1" class="node">
<title>1</title>
<ellipse fill="none" stroke="black" cx="69.5" cy="-243.44" rx="27" ry="18"/>
<text text-anchor="middle" x="69.5" y="-239.74" font-family="Times,serif" font-size="14.00">1</text>
</g>
<!-- 2 -->
<g id="node2" class="node">
<title>2</title>
<ellipse fill="none" stroke="black" cx="105.27" cy="-171.34" rx="27" ry="18"/>
<text text-anchor="middle" x="105.27" y="-167.64" font-family="Times,serif" font-size="14.00">2</text>
</g>
<!-- 1&#45;&#45;2 -->
<g id="edge1" class="edge">
<title>1&#45;&#45;2</title>
<path fill="none" stroke="black" d="M78.16,-225.98C83.79,-214.65 91.09,-199.93 96.69,-188.63"/>
</g>
<!-- 3 -->
<g id="node3" class="node">
<title>3</title>
<ellipse fill="none" stroke="black" cx="96.56" cy="-89.3" rx="27" ry="18"/>
<text text-anchor="middle" x="96.56" y="-85.6" font-family="Times,serif" font-size="14.00">3</text>
</g>
<!-- 2&#45;&#45;3 -->
<g id="edge2" class="edge">
<title>2&#45;&#45;3</title>
<path fill="none" stroke="black" d="M103.34,-153.13C101.89,-139.54 99.93,-121.04 98.49,-107.45"/>
</g>
<!-- 11 -->
<g id="node4" class="node">
<title>11</title>
<ellipse fill="none" stroke="black" cx="179.4" cy="-214.51" rx="27" ry="18"/>
<text text-anchor="middle" x="179.4" y="-210.81" font-family="Times,serif" font-size="14.00">11</text>
</g>
<!-- 2&#45;&#45;11 -->
<g id="edge3" class="edge">
<title>2&#45;&#45;11</title>
<path fill="none" stroke="black" d="M125.92,-183.37C136.2,-189.35 148.6,-196.57 158.86,-202.55"/>
</g>
<!-- 4 -->
<g id="node5" class="node">
<title>4</title>
<ellipse fill="none" stroke="black" cx="27" cy="-51.15" rx="27" ry="18"/>
<text text-anchor="middle" x="27" y="-47.45" font-family="Times,serif" font-size="14.00">4</text>
</g>
<!-- 3&#45;&#45;4 -->
<g id="edge4" class="edge">
<title>3&#45;&#45;4</title>
<path fill="none" stroke="black" d="M75.69,-77.85C66.88,-73.02 56.66,-67.41 47.85,-62.58"/>
</g>
<!-- 5 -->
<g id="node6" class="node">
<title>5</title>
<ellipse fill="none" stroke="black" cx="90.65" cy="-18" rx="27" ry="18"/>
<text text-anchor="middle" x="90.65" y="-14.3" font-family="Times,serif" font-size="14.00">5</text>
</g>
<!-- 3&#45;&#45;5 -->
<g id="edge5" class="edge">
<title>3&#45;&#45;5</title>
<path fill="none" stroke="black" d="M95.07,-71.31C94.18,-60.58 93.05,-47 92.16,-36.23"/>
</g>
<!-- 6 -->
<g id="node7" class="node">
<title>6</title>
<ellipse fill="none" stroke="black" cx="160.43" cy="-35.42" rx="27" ry="18"/>
<text text-anchor="middle" x="160.43" y="-31.72" font-family="Times,serif" font-size="14.00">6</text>
</g>
<!-- 3&#45;&#45;6 -->
<g id="edge6" class="edge">
<title>3&#45;&#45;6</title>
<path fill="none" stroke="black" d="M113.34,-75.14C122.65,-67.28 134.2,-57.54 143.54,-49.67"/>
</g>
<!-- 12 -->
<g id="node12" class="node">
<title>12</title>
<ellipse fill="none" stroke="black" cx="140.41" cy="-284.42" rx="27" ry="18"/>
<text text-anchor="middle" x="140.41" y="-280.72" font-family="Times,serif" font-size="14.00">12</text>
</g>
<!-- 11&#45;&#45;12 -->
<g id="edge15" class="edge">
<title>11&#45;&#45;12</title>
<path fill="none" stroke="black" d="M169.96,-231.44C163.92,-242.27 156.11,-256.28 150.03,-267.17"/>
</g>
<!-- 4&#45;&#45;5 -->
<g id="edge7" class="edge">
<title>4&#45;&#45;5</title>
<path fill="none" stroke="black" d="M48.55,-39.92C55.18,-36.47 62.49,-32.67 69.12,-29.21"/>
</g>
<!-- 5&#45;&#45;6 -->
<g id="edge8" class="edge">
<title>5&#45;&#45;6</title>
<path fill="none" stroke="black" d="M116.23,-24.39C122.3,-25.9 128.77,-27.52 134.84,-29.03"/>
</g>
<!-- 7 -->
<g id="node8" class="node">
<title>7</title>
<ellipse fill="none" stroke="black" cx="239.64" cy="-42.2" rx="27" ry="18"/>
<text text-anchor="middle" x="239.64" y="-38.5" font-family="Times,serif" font-size="14.00">7</text>
</g>
<!-- 6&#45;&#45;7 -->
<g id="edge9" class="edge">
<title>6&#45;&#45;7</title>
<path fill="none" stroke="black" d="M187.24,-37.72C195.5,-38.42 204.59,-39.2 212.85,-39.91"/>
</g>
<!-- 8 -->
<g id="node9" class="node">
<title>8</title>
<ellipse fill="none" stroke="black" cx="311.5" cy="-44.04" rx="27" ry="18"/>
<text text-anchor="middle" x="311.5" y="-40.34" font-family="Times,serif" font-size="14.00">8</text>
</g>
<!-- 7&#45;&#45;8 -->
<g id="edge10" class="edge">
<title>7&#45;&#45;8</title>
<path fill="none" stroke="black" d="M266.81,-42.9C272.53,-43.04 278.57,-43.2 284.29,-43.34"/>
</g>
<!-- 9 -->
<g id="node10" class="node">
<title>9</title>
<ellipse fill="none" stroke="black" cx="283.9" cy="-110.93" rx="27" ry="18"/>
<text text-anchor="middle" x="283.9" y="-107.23" font-family="Times,serif" font-size="14.00">9</text>
</g>
<!-- 7&#45;&#45;9 -->
<g id="edge11" class="edge">
<title>7&#45;&#45;9</title>
<path fill="none" stroke="black" d="M250.35,-58.84C257.21,-69.49 266.08,-83.26 272.98,-93.97"/>
</g>
<!-- 8&#45;&#45;9 -->
<g id="edge12" class="edge">
<title>8&#45;&#45;9</title>
<path fill="none" stroke="black" d="M304.25,-61.61C300.22,-71.37 295.23,-83.47 291.2,-93.24"/>
</g>
<!-- 10 -->
<g id="node11" class="node">
<title>10</title>
<ellipse fill="none" stroke="black" cx="257.57" cy="-187.75" rx="27" ry="18"/>
<text text-anchor="middle" x="257.57" y="-184.05" font-family="Times,serif" font-size="14.00">10</text>
</g>
<!-- 9&#45;&#45;10 -->
<g id="edge13" class="edge">
<title>9&#45;&#45;10</title>
<path fill="none" stroke="black" d="M277.79,-128.75C273.54,-141.16 267.89,-157.64 263.64,-170.03"/>
</g>
<!-- 10&#45;&#45;11 -->
<g id="edge14" class="edge">
<title>10&#45;&#45;11</title>
<path fill="none" stroke="black" d="M233.27,-196.07C223.76,-199.32 212.9,-203.05 203.42,-206.29"/>
</g>
<!-- 12&#45;&#45;1 -->
<g id="edge16" class="edge">
<title>12&#45;&#45;1</title>
<path fill="none" stroke="black" d="M119.9,-272.57C110.57,-267.18 99.56,-260.81 90.21,-255.41"/>
</g>
</g>
</svg>
