<?xml version="1.0" encoding="UTF-8" standalone="no"?>
<!DOCTYPE svg PUBLIC "-//W3C//DTD SVG 1.1//EN"
 "http://www.w3.org/Graphics/SVG/1.1/DTD/svg11.dtd">
<!-- Generated by graphviz version 2.43.0 (0)
 -->
<!-- Title: G Pages: 1 -->
<svg width="454pt" height="314pt"
 viewBox="0.00 0.00 454.00 314.00" xmlns="http://www.w3.org/2000/svg" xmlns:xlink="http://www.w3.org/1999/xlink">
<g id="graph0" class="graph" transform="scale(1 1) rotate(0) translate(4 310)">
<title>G</title>
<polygon fill="white" stroke="transparent" points="-4,4 -4,-310 450,-310 450,4 -4,4"/>
<!-- titulo -->
<g id="node1" class="node">
<title>titulo</title>
<polygon fill="red" stroke="black" points="446,-306 297,-306 297,-270 446,-270 446,-306"/>
<text text-anchor="middle" x="371.5" y="-284.3" font-family="Times,serif" font-size="14.00">Possíveis d&#45;branch</text>
</g>
<!-- 2 -->
<g id="node2" class="node">
<title>2</title>
<ellipse fill="red" stroke="black" cx="102.67" cy="-135.24" rx="27" ry="18"/>
<text text-anchor="middle" x="102.67" y="-131.54" font-family="Times,serif" font-size="14.00">2</text>
</g>
<!-- 3 -->
<g id="node3" class="node">
<title>3</title>
<ellipse fill="red" stroke="black" cx="153.21" cy="-200.47" rx="27" ry="18"/>
<text text-anchor="middle" x="153.21" y="-196.77" font-family="Times,serif" font-size="14.00">3</text>
</g>
<!-- 2&#45;&#45;3 -->
<g id="edge2" class="edge">
<title>2&#45;&#45;3</title>
<path fill="none" stroke="black" d="M115.16,-151.36C122.88,-161.32 132.75,-174.07 140.51,-184.07"/>
</g>
<!-- 11 -->
<g id="node4" class="node">
<title>11</title>
<ellipse fill="red" stroke="black" cx="126.3" cy="-52.81" rx="27" ry="18"/>
<text text-anchor="middle" x="126.3" y="-49.11" font-family="Times,serif" font-size="14.00">11</text>
</g>
<!-- 2&#45;&#45;11 -->
<g id="edge3" class="edge">
<title>2&#45;&#45;11</title>
<path fill="none" stroke="black" d="M107.8,-117.35C111.76,-103.53 117.22,-84.48 121.18,-70.66"/>
</g>
<!-- 5 -->
<g id="node5" class="node">
<title>5</title>
<ellipse fill="red" stroke="black" cx="197.94" cy="-256.15" rx="27" ry="18"/>
<text text-anchor="middle" x="197.94" y="-252.45" font-family="Times,serif" font-size="14.00">5</text>
</g>
<!-- 3&#45;&#45;5 -->
<g id="edge5" class="edge">
<title>3&#45;&#45;5</title>
<path fill="none" stroke="black" d="M166.14,-216.57C172.13,-224.03 179.22,-232.85 185.18,-240.28"/>
</g>
<!-- 6 -->
<g id="node6" class="node">
<title>6</title>
<ellipse fill="red" stroke="black" cx="236.65" cy="-195.46" rx="27" ry="18"/>
<text text-anchor="middle" x="236.65" y="-191.76" font-family="Times,serif" font-size="14.00">6</text>
</g>
<!-- 3&#45;&#45;6 -->
<g id="edge6" class="edge">
<title>3&#45;&#45;6</title>
<path fill="none" stroke="black" d="M180.53,-198.83C189.85,-198.27 200.25,-197.64 209.55,-197.09"/>
</g>
<!-- 4 -->
<g id="node10" class="node">
<title>4</title>
<ellipse fill="none" stroke="black" cx="128.97" cy="-276.03" rx="27" ry="18"/>
<text text-anchor="middle" x="128.97" y="-272.33" font-family="Times,serif" font-size="14.00">4</text>
</g>
<!-- 3&#45;&#45;4 -->
<g id="edge4" class="edge">
<title>3&#45;&#45;4</title>
<path fill="none" stroke="black" d="M147.46,-218.37C143.6,-230.42 138.53,-246.23 134.67,-258.25"/>
</g>
<!-- 12 -->
<g id="node13" class="node">
<title>12</title>
<ellipse fill="none" stroke="black" cx="49.85" cy="-29.15" rx="27" ry="18"/>
<text text-anchor="middle" x="49.85" y="-25.45" font-family="Times,serif" font-size="14.00">12</text>
</g>
<!-- 11&#45;&#45;12 -->
<g id="edge15" class="edge">
<title>11&#45;&#45;12</title>
<path fill="none" stroke="black" d="M101.69,-45.19C92.96,-42.49 83.14,-39.45 74.41,-36.75"/>
</g>
<!-- 5&#45;&#45;6 -->
<g id="edge8" class="edge">
<title>5&#45;&#45;6</title>
<path fill="none" stroke="black" d="M208.52,-239.57C213.98,-231.01 220.63,-220.59 226.09,-212.03"/>
</g>
<!-- 7 -->
<g id="node7" class="node">
<title>7</title>
<ellipse fill="red" stroke="black" cx="289.09" cy="-135.61" rx="27" ry="18"/>
<text text-anchor="middle" x="289.09" y="-131.91" font-family="Times,serif" font-size="14.00">7</text>
</g>
<!-- 6&#45;&#45;7 -->
<g id="edge9" class="edge">
<title>6&#45;&#45;7</title>
<path fill="none" stroke="black" d="M250.43,-179.74C258.08,-171.01 267.56,-160.18 275.22,-151.44"/>
</g>
<!-- 9 -->
<g id="node8" class="node">
<title>9</title>
<ellipse fill="red" stroke="black" cx="273.24" cy="-55.39" rx="27" ry="18"/>
<text text-anchor="middle" x="273.24" y="-51.69" font-family="Times,serif" font-size="14.00">9</text>
</g>
<!-- 7&#45;&#45;9 -->
<g id="edge11" class="edge">
<title>7&#45;&#45;9</title>
<path fill="none" stroke="black" d="M285.49,-117.41C282.88,-104.19 279.37,-86.38 276.77,-73.24"/>
</g>
<!-- 8 -->
<g id="node11" class="node">
<title>8</title>
<ellipse fill="none" stroke="black" cx="339.5" cy="-84.22" rx="27" ry="18"/>
<text text-anchor="middle" x="339.5" y="-80.52" font-family="Times,serif" font-size="14.00">8</text>
</g>
<!-- 7&#45;&#45;8 -->
<g id="edge10" class="edge">
<title>7&#45;&#45;8</title>
<path fill="none" stroke="black" d="M303.94,-120.47C310.45,-113.84 318.07,-106.07 324.58,-99.43"/>
</g>
<!-- 10 -->
<g id="node12" class="node">
<title>10</title>
<ellipse fill="none" stroke="black" cx="201.21" cy="-18" rx="27" ry="18"/>
<text text-anchor="middle" x="201.21" y="-14.3" font-family="Times,serif" font-size="14.00">10</text>
</g>
<!-- 9&#45;&#45;10 -->
<g id="edge13" class="edge">
<title>9&#45;&#45;10</title>
<path fill="none" stroke="black" d="M251.63,-44.17C242.51,-39.44 231.92,-33.94 222.81,-29.21"/>
</g>
<!-- 1 -->
<g id="node9" class="node">
<title>1</title>
<ellipse fill="none" stroke="black" cx="27" cy="-107.79" rx="27" ry="18"/>
<text text-anchor="middle" x="27" y="-104.09" font-family="Times,serif" font-size="14.00">1</text>
</g>
<!-- 1&#45;&#45;2 -->
<g id="edge1" class="edge">
<title>1&#45;&#45;2</title>
<path fill="none" stroke="black" d="M50.94,-116.48C59.86,-119.71 69.98,-123.38 78.88,-126.61"/>
</g>
<!-- 4&#45;&#45;5 -->
<g id="edge7" class="edge">
<title>4&#45;&#45;5</title>
<path fill="none" stroke="black" d="M153.87,-268.86C160.04,-267.08 166.66,-265.17 172.84,-263.39"/>
</g>
<!-- 8&#45;&#45;9 -->
<g id="edge12" class="edge">
<title>8&#45;&#45;9</title>
<path fill="none" stroke="black" d="M316.7,-74.3C309.96,-71.36 302.59,-68.16 295.86,-65.23"/>
</g>
<!-- 10&#45;&#45;11 -->
<g id="edge14" class="edge">
<title>10&#45;&#45;11</title>
<path fill="none" stroke="black" d="M178.74,-28.44C169.17,-32.89 158.04,-38.06 148.5,-42.49"/>
</g>
<!-- 12&#45;&#45;1 -->
<g id="edge16" class="edge">
<title>12&#45;&#45;1</title>
<path fill="none" stroke="black" d="M44.67,-47C40.93,-59.87 35.9,-77.16 32.16,-90.02"/>
</g>
</g>
</svg>
