<?xml version="1.0" encoding="UTF-8" standalone="no"?>
<!DOCTYPE svg PUBLIC "-//W3C//DTD SVG 1.1//EN"
 "http://www.w3.org/Graphics/SVG/1.1/DTD/svg11.dtd">
<!-- Generated by graphviz version 2.43.0 (0)
 -->
<!-- Title: G Pages: 1 -->
<svg width="346pt" height="404pt"
 viewBox="0.00 0.00 345.50 404.00" xmlns="http://www.w3.org/2000/svg" xmlns:xlink="http://www.w3.org/1999/xlink">
<g id="graph0" class="graph" transform="scale(1 1) rotate(0) translate(4 400)">
<title>G</title>
<polygon fill="white" stroke="transparent" points="-4,4 -4,-400 341.5,-400 341.5,4 -4,4"/>
<!-- titulo -->
<g id="node1" class="node">
<title>titulo</title>
<polygon fill="red" stroke="black" points="149,-396 0,-396 0,-360 149,-360 149,-396"/>
<text text-anchor="middle" x="74.5" y="-374.3" font-family="Times,serif" font-size="14.00">Possíveis d&#45;branch</text>
</g>
<!-- 3 -->
<g id="node2" class="node">
<title>3</title>
<ellipse fill="red" stroke="black" cx="238.5" cy="-306" rx="27" ry="18"/>
<text text-anchor="middle" x="238.5" y="-302.3" font-family="Times,serif" font-size="14.00">3</text>
</g>
<!-- 4 -->
<g id="node3" class="node">
<title>4</title>
<ellipse fill="red" stroke="black" cx="191.5" cy="-234" rx="27" ry="18"/>
<text text-anchor="middle" x="191.5" y="-230.3" font-family="Times,serif" font-size="14.00">4</text>
</g>
<!-- 3&#45;&#45;4 -->
<g id="edge5" class="edge">
<title>3&#45;&#45;4</title>
<path fill="none" stroke="black" d="M227.83,-289.12C220.14,-277.66 209.8,-262.26 202.12,-250.82"/>
</g>
<!-- 11 -->
<g id="node6" class="node">
<title>11</title>
<ellipse fill="red" stroke="black" cx="292.5" cy="-234" rx="27" ry="18"/>
<text text-anchor="middle" x="292.5" y="-230.3" font-family="Times,serif" font-size="14.00">11</text>
</g>
<!-- 3&#45;&#45;11 -->
<g id="edge6" class="edge">
<title>3&#45;&#45;11</title>
<path fill="none" stroke="black" d="M250.48,-289.46C259.43,-277.86 271.61,-262.08 280.55,-250.49"/>
</g>
<!-- 5 -->
<g id="node4" class="node">
<title>5</title>
<ellipse fill="red" stroke="black" cx="123.5" cy="-162" rx="27" ry="18"/>
<text text-anchor="middle" x="123.5" y="-158.3" font-family="Times,serif" font-size="14.00">5</text>
</g>
<!-- 4&#45;&#45;5 -->
<g id="edge7" class="edge">
<title>4&#45;&#45;5</title>
<path fill="none" stroke="black" d="M177.41,-218.5C165.74,-206.48 149.24,-189.49 137.57,-177.49"/>
</g>
<!-- 8 -->
<g id="node5" class="node">
<title>8</title>
<ellipse fill="red" stroke="black" cx="195.5" cy="-162" rx="27" ry="18"/>
<text text-anchor="middle" x="195.5" y="-158.3" font-family="Times,serif" font-size="14.00">8</text>
</g>
<!-- 4&#45;&#45;8 -->
<g id="edge8" class="edge">
<title>4&#45;&#45;8</title>
<path fill="none" stroke="black" d="M192.49,-215.7C193.11,-204.85 193.9,-190.92 194.52,-180.1"/>
</g>
<!-- 6 -->
<g id="node10" class="node">
<title>6</title>
<ellipse fill="none" stroke="black" cx="69.5" cy="-90" rx="27" ry="18"/>
<text text-anchor="middle" x="69.5" y="-86.3" font-family="Times,serif" font-size="14.00">6</text>
</g>
<!-- 5&#45;&#45;6 -->
<g id="edge9" class="edge">
<title>5&#45;&#45;6</title>
<path fill="none" stroke="black" d="M111.52,-145.46C102.57,-133.86 90.39,-118.08 81.45,-106.49"/>
</g>
<!-- 7 -->
<g id="node11" class="node">
<title>7</title>
<ellipse fill="none" stroke="black" cx="97.5" cy="-18" rx="27" ry="18"/>
<text text-anchor="middle" x="97.5" y="-14.3" font-family="Times,serif" font-size="14.00">7</text>
</g>
<!-- 5&#45;&#45;7 -->
<g id="edge10" class="edge">
<title>5&#45;&#45;7</title>
<path fill="none" stroke="black" d="M120.36,-143.87C115.37,-116.58 105.65,-63.52 100.65,-36.19"/>
</g>
<!-- 9 -->
<g id="node12" class="node">
<title>9</title>
<ellipse fill="none" stroke="black" cx="181.5" cy="-90" rx="27" ry="18"/>
<text text-anchor="middle" x="181.5" y="-86.3" font-family="Times,serif" font-size="14.00">9</text>
</g>
<!-- 8&#45;&#45;9 -->
<g id="edge12" class="edge">
<title>8&#45;&#45;9</title>
<path fill="none" stroke="black" d="M192.11,-144.05C189.94,-133.21 187.14,-119.18 184.96,-108.28"/>
</g>
<!-- 10 -->
<g id="node13" class="node">
<title>10</title>
<ellipse fill="none" stroke="black" cx="219.5" cy="-18" rx="27" ry="18"/>
<text text-anchor="middle" x="219.5" y="-14.3" font-family="Times,serif" font-size="14.00">10</text>
</g>
<!-- 8&#45;&#45;10 -->
<g id="edge13" class="edge">
<title>8&#45;&#45;10</title>
<path fill="none" stroke="black" d="M204.07,-144.8C209.02,-134.56 214.78,-120.87 217.5,-108 222.67,-83.5 222.1,-54.37 220.98,-36.28"/>
</g>
<!-- 12 -->
<g id="node7" class="node">
<title>12</title>
<ellipse fill="red" stroke="black" cx="292.5" cy="-162" rx="27" ry="18"/>
<text text-anchor="middle" x="292.5" y="-158.3" font-family="Times,serif" font-size="14.00">12</text>
</g>
<!-- 11&#45;&#45;12 -->
<g id="edge15" class="edge">
<title>11&#45;&#45;12</title>
<path fill="none" stroke="black" d="M292.5,-215.7C292.5,-204.85 292.5,-190.92 292.5,-180.1"/>
</g>
<!-- 13 -->
<g id="node14" class="node">
<title>13</title>
<ellipse fill="none" stroke="black" cx="292.5" cy="-90" rx="27" ry="18"/>
<text text-anchor="middle" x="292.5" y="-86.3" font-family="Times,serif" font-size="14.00">13</text>
</g>
<!-- 12&#45;&#45;13 -->
<g id="edge16" class="edge">
<title>12&#45;&#45;13</title>
<path fill="none" stroke="black" d="M292.5,-143.7C292.5,-132.85 292.5,-118.92 292.5,-108.1"/>
</g>
<!-- 14 -->
<g id="node15" class="node">
<title>14</title>
<ellipse fill="none" stroke="black" cx="310.5" cy="-18" rx="27" ry="18"/>
<text text-anchor="middle" x="310.5" y="-14.3" font-family="Times,serif" font-size="14.00">14</text>
</g>
<!-- 12&#45;&#45;14 -->
<g id="edge17" class="edge">
<title>12&#45;&#45;14</title>
<path fill="none" stroke="black" d="M306.25,-146.07C314.46,-136.1 324.12,-122.25 328.5,-108 336.15,-83.14 326.46,-53.35 318.6,-35.32"/>
</g>
<!-- 1 -->
<g id="node8" class="node">
<title>1</title>
<ellipse fill="none" stroke="black" cx="193.5" cy="-378" rx="27" ry="18"/>
<text text-anchor="middle" x="193.5" y="-374.3" font-family="Times,serif" font-size="14.00">1</text>
</g>
<!-- 1&#45;&#45;3 -->
<g id="edge1" class="edge">
<title>1&#45;&#45;3</title>
<path fill="none" stroke="black" d="M203.71,-361.12C211.08,-349.66 220.97,-334.26 228.33,-322.82"/>
</g>
<!-- 1&#45;&#45;4 -->
<g id="edge2" class="edge">
<title>1&#45;&#45;4</title>
<path fill="none" stroke="black" d="M193.26,-359.87C192.87,-332.58 192.13,-279.52 191.74,-252.19"/>
</g>
<!-- 2 -->
<g id="node9" class="node">
<title>2</title>
<ellipse fill="none" stroke="black" cx="274.5" cy="-378" rx="27" ry="18"/>
<text text-anchor="middle" x="274.5" y="-374.3" font-family="Times,serif" font-size="14.00">2</text>
</g>
<!-- 2&#45;&#45;3 -->
<g id="edge3" class="edge">
<title>2&#45;&#45;3</title>
<path fill="none" stroke="black" d="M266.15,-360.76C260.33,-349.46 252.61,-334.44 246.8,-323.15"/>
</g>
<!-- 2&#45;&#45;11 -->
<g id="edge4" class="edge">
<title>2&#45;&#45;11</title>
<path fill="none" stroke="black" d="M276.67,-359.87C280.13,-332.58 286.86,-279.52 290.32,-252.19"/>
</g>
<!-- 6&#45;&#45;7 -->
<g id="edge11" class="edge">
<title>6&#45;&#45;7</title>
<path fill="none" stroke="black" d="M76.14,-72.41C80.6,-61.25 86.46,-46.6 90.91,-35.47"/>
</g>
<!-- 9&#45;&#45;10 -->
<g id="edge14" class="edge">
<title>9&#45;&#45;10</title>
<path fill="none" stroke="black" d="M190.31,-72.76C196.45,-61.46 204.61,-46.44 210.73,-35.15"/>
</g>
<!-- 13&#45;&#45;14 -->
<g id="edge18" class="edge">
<title>13&#45;&#45;14</title>
<path fill="none" stroke="black" d="M296.86,-72.05C299.69,-61.05 303.36,-46.76 306.18,-35.79"/>
</g>
</g>
</svg>
