<?xml version="1.0" encoding="UTF-8" standalone="no"?>
<!DOCTYPE svg PUBLIC "-//W3C//DTD SVG 1.1//EN"
 "http://www.w3.org/Graphics/SVG/1.1/DTD/svg11.dtd">
<!-- Generated by graphviz version 2.43.0 (0)
 -->
<!-- Title: G Pages: 1 -->
<svg width="327pt" height="352pt"
 viewBox="0.00 0.00 326.72 351.82" xmlns="http://www.w3.org/2000/svg" xmlns:xlink="http://www.w3.org/1999/xlink">
<g id="graph0" class="graph" transform="scale(1 1) rotate(0) translate(4 347.82)">
<title>G</title>
<polygon fill="white" stroke="transparent" points="-4,4 -4,-347.82 322.72,-347.82 322.72,4 -4,4"/>
<!-- 3 -->
<g id="node1" class="node">
<title>3</title>
<ellipse fill="red" stroke="black" cx="104.88" cy="-189.98" rx="27" ry="18"/>
<text text-anchor="middle" x="104.88" y="-186.28" font-family="Times,serif" font-size="14.00">3</text>
</g>
<!-- 4 -->
<g id="node5" class="node">
<title>4</title>
<ellipse fill="none" stroke="black" cx="27" cy="-205.15" rx="27" ry="18"/>
<text text-anchor="middle" x="27" y="-201.45" font-family="Times,serif" font-size="14.00">4</text>
</g>
<!-- 3&#45;&#45;4 -->
<g id="edge4" class="edge">
<title>3&#45;&#45;4</title>
<path fill="none" stroke="black" d="M78.95,-195.03C70.63,-196.65 61.42,-198.45 53.09,-200.07"/>
</g>
<!-- 5 -->
<g id="node6" class="node">
<title>5</title>
<ellipse fill="none" stroke="black" cx="54.81" cy="-138.97" rx="27" ry="18"/>
<text text-anchor="middle" x="54.81" y="-135.27" font-family="Times,serif" font-size="14.00">5</text>
</g>
<!-- 3&#45;&#45;5 -->
<g id="edge5" class="edge">
<title>3&#45;&#45;5</title>
<path fill="none" stroke="black" d="M89.86,-174.67C83.52,-168.22 76.16,-160.72 69.82,-154.26"/>
</g>
<!-- 6 -->
<g id="node7" class="node">
<title>6</title>
<ellipse fill="none" stroke="black" cx="119.58" cy="-107.67" rx="27" ry="18"/>
<text text-anchor="middle" x="119.58" y="-103.97" font-family="Times,serif" font-size="14.00">6</text>
</g>
<!-- 3&#45;&#45;6 -->
<g id="edge6" class="edge">
<title>3&#45;&#45;6</title>
<path fill="none" stroke="black" d="M108.14,-171.71C110.6,-157.98 113.94,-139.26 116.38,-125.6"/>
</g>
<!-- 1 -->
<g id="node2" class="node">
<title>1</title>
<ellipse fill="none" stroke="black" cx="182.61" cy="-325.82" rx="27" ry="18"/>
<text text-anchor="middle" x="182.61" y="-322.12" font-family="Times,serif" font-size="14.00">1</text>
</g>
<!-- 2 -->
<g id="node3" class="node">
<title>2</title>
<ellipse fill="none" stroke="black" cx="163.98" cy="-247.52" rx="27" ry="18"/>
<text text-anchor="middle" x="163.98" y="-243.82" font-family="Times,serif" font-size="14.00">2</text>
</g>
<!-- 1&#45;&#45;2 -->
<g id="edge1" class="edge">
<title>1&#45;&#45;2</title>
<path fill="none" stroke="black" d="M178.29,-307.66C175.26,-294.92 171.23,-277.97 168.22,-265.31"/>
</g>
<!-- 2&#45;&#45;3 -->
<g id="edge2" class="edge">
<title>2&#45;&#45;3</title>
<path fill="none" stroke="black" d="M148.46,-232.4C139.84,-224.01 129.15,-213.6 120.51,-205.19"/>
</g>
<!-- 11 -->
<g id="node4" class="node">
<title>11</title>
<ellipse fill="none" stroke="black" cx="248.58" cy="-233.42" rx="27" ry="18"/>
<text text-anchor="middle" x="248.58" y="-229.72" font-family="Times,serif" font-size="14.00">11</text>
</g>
<!-- 2&#45;&#45;11 -->
<g id="edge3" class="edge">
<title>2&#45;&#45;11</title>
<path fill="none" stroke="lightgray" d="M190.29,-243.14C200.47,-241.44 212.11,-239.5 222.29,-237.8"/>
</g>
<!-- 12 -->
<g id="node12" class="node">
<title>12</title>
<ellipse fill="none" stroke="black" cx="263.34" cy="-312.09" rx="27" ry="18"/>
<text text-anchor="middle" x="263.34" y="-308.39" font-family="Times,serif" font-size="14.00">12</text>
</g>
<!-- 11&#45;&#45;12 -->
<g id="edge15" class="edge">
<title>11&#45;&#45;12</title>
<path fill="none" stroke="black" d="M252,-251.67C254.41,-264.47 257.6,-281.5 259.99,-294.22"/>
</g>
<!-- 4&#45;&#45;5 -->
<g id="edge7" class="edge">
<title>4&#45;&#45;5</title>
<path fill="none" stroke="lightgray" d="M34.31,-187.76C38.36,-178.11 43.39,-166.14 47.45,-156.47"/>
</g>
<!-- 5&#45;&#45;6 -->
<g id="edge8" class="edge">
<title>5&#45;&#45;6</title>
<path fill="none" stroke="lightgray" d="M76.74,-128.37C83.49,-125.11 90.92,-121.52 97.68,-118.26"/>
</g>
<!-- 7 -->
<g id="node8" class="node">
<title>7</title>
<ellipse fill="none" stroke="black" cx="184.93" cy="-62.32" rx="27" ry="18"/>
<text text-anchor="middle" x="184.93" y="-58.62" font-family="Times,serif" font-size="14.00">7</text>
</g>
<!-- 6&#45;&#45;7 -->
<g id="edge9" class="edge">
<title>6&#45;&#45;7</title>
<path fill="none" stroke="black" d="M138.48,-94.55C147.08,-88.59 157.23,-81.55 165.84,-75.57"/>
</g>
<!-- 8 -->
<g id="node9" class="node">
<title>8</title>
<ellipse fill="none" stroke="black" cx="241.59" cy="-18" rx="27" ry="18"/>
<text text-anchor="middle" x="241.59" y="-14.3" font-family="Times,serif" font-size="14.00">8</text>
</g>
<!-- 7&#45;&#45;8 -->
<g id="edge10" class="edge">
<title>7&#45;&#45;8</title>
<path fill="none" stroke="black" d="M202.54,-48.54C209.3,-43.25 217.01,-37.22 223.79,-31.92"/>
</g>
<!-- 9 -->
<g id="node10" class="node">
<title>9</title>
<ellipse fill="none" stroke="black" cx="262.86" cy="-87.09" rx="27" ry="18"/>
<text text-anchor="middle" x="262.86" y="-83.39" font-family="Times,serif" font-size="14.00">9</text>
</g>
<!-- 7&#45;&#45;9 -->
<g id="edge11" class="edge">
<title>7&#45;&#45;9</title>
<path fill="none" stroke="lightgray" d="M209.59,-70.16C218.77,-73.08 229.19,-76.39 238.36,-79.31"/>
</g>
<!-- 8&#45;&#45;9 -->
<g id="edge12" class="edge">
<title>8&#45;&#45;9</title>
<path fill="none" stroke="black" d="M247.06,-35.79C250.22,-46.03 254.16,-58.86 257.32,-69.12"/>
</g>
<!-- 10 -->
<g id="node11" class="node">
<title>10</title>
<ellipse fill="none" stroke="black" cx="291.72" cy="-162.97" rx="27" ry="18"/>
<text text-anchor="middle" x="291.72" y="-159.27" font-family="Times,serif" font-size="14.00">10</text>
</g>
<!-- 9&#45;&#45;10 -->
<g id="edge13" class="edge">
<title>9&#45;&#45;10</title>
<path fill="none" stroke="black" d="M269.55,-104.69C274.21,-116.95 280.41,-133.23 285.06,-145.47"/>
</g>
<!-- 10&#45;&#45;11 -->
<g id="edge14" class="edge">
<title>10&#45;&#45;11</title>
<path fill="none" stroke="black" d="M281.5,-179.67C274.72,-190.73 265.85,-205.21 259.03,-216.36"/>
</g>
<!-- 12&#45;&#45;1 -->
<g id="edge16" class="edge">
<title>12&#45;&#45;1</title>
<path fill="none" stroke="lightgray" d="M236.91,-316.59C227.9,-318.12 217.83,-319.83 208.83,-321.36"/>
</g>
</g>
</svg>
