<?xml version="1.0" encoding="UTF-8" standalone="no"?>
<!DOCTYPE svg PUBLIC "-//W3C//DTD SVG 1.1//EN"
 "http://www.w3.org/Graphics/SVG/1.1/DTD/svg11.dtd">
<!-- Generated by graphviz version 2.43.0 (0)
 -->
<!-- Title: G Pages: 1 -->
<svg width="303pt" height="404pt"
 viewBox="0.00 0.00 303.00 404.00" xmlns="http://www.w3.org/2000/svg" xmlns:xlink="http://www.w3.org/1999/xlink">
<g id="graph0" class="graph" transform="scale(1 1) rotate(0) translate(4 400)">
<title>G</title>
<polygon fill="white" stroke="transparent" points="-4,4 -4,-400 299,-400 299,4 -4,4"/>
<!-- 3 -->
<g id="node1" class="node">
<title>3</title>
<ellipse fill="red" stroke="black" cx="196" cy="-306" rx="27" ry="18"/>
<text text-anchor="middle" x="196" y="-302.3" font-family="Times,serif" font-size="14.00">3</text>
</g>
<!-- 4 -->
<g id="node2" class="node">
<title>4</title>
<ellipse fill="red" stroke="black" cx="149" cy="-234" rx="27" ry="18"/>
<text text-anchor="middle" x="149" y="-230.3" font-family="Times,serif" font-size="14.00">4</text>
</g>
<!-- 3&#45;&#45;4 -->
<g id="edge5" class="edge">
<title>3&#45;&#45;4</title>
<path fill="none" stroke="black" d="M185.33,-289.12C177.64,-277.66 167.3,-262.26 159.62,-250.82"/>
</g>
<!-- 11 -->
<g id="node8" class="node">
<title>11</title>
<ellipse fill="none" stroke="black" cx="250" cy="-234" rx="27" ry="18"/>
<text text-anchor="middle" x="250" y="-230.3" font-family="Times,serif" font-size="14.00">11</text>
</g>
<!-- 3&#45;&#45;11 -->
<g id="edge6" class="edge">
<title>3&#45;&#45;11</title>
<path fill="none" stroke="black" d="M207.98,-289.46C216.93,-277.86 229.11,-262.08 238.05,-250.49"/>
</g>
<!-- 5 -->
<g id="node3" class="node">
<title>5</title>
<ellipse fill="red" stroke="black" cx="81" cy="-162" rx="27" ry="18"/>
<text text-anchor="middle" x="81" y="-158.3" font-family="Times,serif" font-size="14.00">5</text>
</g>
<!-- 4&#45;&#45;5 -->
<g id="edge7" class="edge">
<title>4&#45;&#45;5</title>
<path fill="none" stroke="black" d="M134.91,-218.5C123.24,-206.48 106.74,-189.49 95.07,-177.49"/>
</g>
<!-- 8 -->
<g id="node4" class="node">
<title>8</title>
<ellipse fill="red" stroke="black" cx="153" cy="-162" rx="27" ry="18"/>
<text text-anchor="middle" x="153" y="-158.3" font-family="Times,serif" font-size="14.00">8</text>
</g>
<!-- 4&#45;&#45;8 -->
<g id="edge8" class="edge">
<title>4&#45;&#45;8</title>
<path fill="none" stroke="black" d="M149.99,-215.7C150.61,-204.85 151.4,-190.92 152.02,-180.1"/>
</g>
<!-- 6 -->
<g id="node9" class="node">
<title>6</title>
<ellipse fill="none" stroke="black" cx="27" cy="-90" rx="27" ry="18"/>
<text text-anchor="middle" x="27" y="-86.3" font-family="Times,serif" font-size="14.00">6</text>
</g>
<!-- 5&#45;&#45;6 -->
<g id="edge9" class="edge">
<title>5&#45;&#45;6</title>
<path fill="none" stroke="black" d="M69.02,-145.46C60.07,-133.86 47.89,-118.08 38.95,-106.49"/>
</g>
<!-- 7 -->
<g id="node10" class="node">
<title>7</title>
<ellipse fill="none" stroke="black" cx="55" cy="-18" rx="27" ry="18"/>
<text text-anchor="middle" x="55" y="-14.3" font-family="Times,serif" font-size="14.00">7</text>
</g>
<!-- 5&#45;&#45;7 -->
<g id="edge10" class="edge">
<title>5&#45;&#45;7</title>
<path fill="none" stroke="black" d="M77.86,-143.87C72.87,-116.58 63.15,-63.52 58.15,-36.19"/>
</g>
<!-- 9 -->
<g id="node11" class="node">
<title>9</title>
<ellipse fill="none" stroke="black" cx="139" cy="-90" rx="27" ry="18"/>
<text text-anchor="middle" x="139" y="-86.3" font-family="Times,serif" font-size="14.00">9</text>
</g>
<!-- 8&#45;&#45;9 -->
<g id="edge12" class="edge">
<title>8&#45;&#45;9</title>
<path fill="none" stroke="black" d="M149.61,-144.05C147.44,-133.21 144.64,-119.18 142.46,-108.28"/>
</g>
<!-- 10 -->
<g id="node12" class="node">
<title>10</title>
<ellipse fill="none" stroke="black" cx="177" cy="-18" rx="27" ry="18"/>
<text text-anchor="middle" x="177" y="-14.3" font-family="Times,serif" font-size="14.00">10</text>
</g>
<!-- 8&#45;&#45;10 -->
<g id="edge13" class="edge">
<title>8&#45;&#45;10</title>
<path fill="none" stroke="black" d="M161.57,-144.8C166.52,-134.56 172.28,-120.87 175,-108 180.17,-83.5 179.6,-54.37 178.48,-36.28"/>
</g>
<!-- 12 -->
<g id="node5" class="node">
<title>12</title>
<ellipse fill="red" stroke="black" cx="250" cy="-162" rx="27" ry="18"/>
<text text-anchor="middle" x="250" y="-158.3" font-family="Times,serif" font-size="14.00">12</text>
</g>
<!-- 13 -->
<g id="node13" class="node">
<title>13</title>
<ellipse fill="none" stroke="black" cx="250" cy="-90" rx="27" ry="18"/>
<text text-anchor="middle" x="250" y="-86.3" font-family="Times,serif" font-size="14.00">13</text>
</g>
<!-- 12&#45;&#45;13 -->
<g id="edge16" class="edge">
<title>12&#45;&#45;13</title>
<path fill="none" stroke="black" d="M250,-143.7C250,-132.85 250,-118.92 250,-108.1"/>
</g>
<!-- 14 -->
<g id="node14" class="node">
<title>14</title>
<ellipse fill="none" stroke="black" cx="268" cy="-18" rx="27" ry="18"/>
<text text-anchor="middle" x="268" y="-14.3" font-family="Times,serif" font-size="14.00">14</text>
</g>
<!-- 12&#45;&#45;14 -->
<g id="edge17" class="edge">
<title>12&#45;&#45;14</title>
<path fill="none" stroke="black" d="M263.75,-146.07C271.96,-136.1 281.62,-122.25 286,-108 293.65,-83.14 283.96,-53.35 276.1,-35.32"/>
</g>
<!-- 1 -->
<g id="node6" class="node">
<title>1</title>
<ellipse fill="none" stroke="black" cx="150" cy="-378" rx="27" ry="18"/>
<text text-anchor="middle" x="150" y="-374.3" font-family="Times,serif" font-size="14.00">1</text>
</g>
<!-- 1&#45;&#45;3 -->
<g id="edge1" class="edge">
<title>1&#45;&#45;3</title>
<path fill="none" stroke="black" d="M160.44,-361.12C167.97,-349.66 178.08,-334.26 185.6,-322.82"/>
</g>
<!-- 1&#45;&#45;4 -->
<g id="edge2" class="edge">
<title>1&#45;&#45;4</title>
<path fill="none" stroke="lightgray" d="M149.88,-359.87C149.69,-332.58 149.31,-279.52 149.12,-252.19"/>
</g>
<!-- 2 -->
<g id="node7" class="node">
<title>2</title>
<ellipse fill="none" stroke="black" cx="241" cy="-378" rx="27" ry="18"/>
<text text-anchor="middle" x="241" y="-374.3" font-family="Times,serif" font-size="14.00">2</text>
</g>
<!-- 2&#45;&#45;3 -->
<g id="edge3" class="edge">
<title>2&#45;&#45;3</title>
<path fill="none" stroke="black" d="M230.79,-361.12C223.42,-349.66 213.53,-334.26 206.17,-322.82"/>
</g>
<!-- 2&#45;&#45;11 -->
<g id="edge4" class="edge">
<title>2&#45;&#45;11</title>
<path fill="none" stroke="lightgray" d="M242.09,-359.87C243.82,-332.58 247.18,-279.52 248.91,-252.19"/>
</g>
<!-- 11&#45;&#45;12 -->
<g id="edge15" class="edge">
<title>11&#45;&#45;12</title>
<path fill="none" stroke="black" d="M250,-215.7C250,-204.85 250,-190.92 250,-180.1"/>
</g>
<!-- 6&#45;&#45;7 -->
<g id="edge11" class="edge">
<title>6&#45;&#45;7</title>
<path fill="none" stroke="lightgray" d="M33.64,-72.41C38.1,-61.25 43.96,-46.6 48.41,-35.47"/>
</g>
<!-- 9&#45;&#45;10 -->
<g id="edge14" class="edge">
<title>9&#45;&#45;10</title>
<path fill="none" stroke="lightgray" d="M147.81,-72.76C153.95,-61.46 162.11,-46.44 168.23,-35.15"/>
</g>
<!-- 13&#45;&#45;14 -->
<g id="edge18" class="edge">
<title>13&#45;&#45;14</title>
<path fill="none" stroke="lightgray" d="M254.36,-72.05C257.19,-61.05 260.86,-46.76 263.68,-35.79"/>
</g>
</g>
</svg>
