<?xml version="1.0" encoding="UTF-8" standalone="no"?>
<!DOCTYPE svg PUBLIC "-//W3C//DTD SVG 1.1//EN"
 "http://www.w3.org/Graphics/SVG/1.1/DTD/svg11.dtd">
<!-- Generated by graphviz version 2.43.0 (0)
 -->
<!-- Title: G Pages: 1 -->
<svg width="292pt" height="332pt"
 viewBox="0.00 0.00 291.50 332.00" xmlns="http://www.w3.org/2000/svg" xmlns:xlink="http://www.w3.org/1999/xlink">
<g id="graph0" class="graph" transform="scale(1 1) rotate(0) translate(4 328)">
<title>G</title>
<polygon fill="white" stroke="transparent" points="-4,4 -4,-328 287.5,-328 287.5,4 -4,4"/>
<!-- titulo -->
<g id="node1" class="node">
<title>titulo</title>
<polygon fill="red" stroke="black" points="149,-324 0,-324 0,-288 149,-288 149,-324"/>
<text text-anchor="middle" x="74.5" y="-302.3" font-family="Times,serif" font-size="14.00">Possíveis d&#45;branch</text>
</g>
<!-- 1 -->
<g id="node2" class="node">
<title>1</title>
<ellipse fill="red" stroke="black" cx="193.5" cy="-306" rx="27" ry="18"/>
<text text-anchor="middle" x="193.5" y="-302.3" font-family="Times,serif" font-size="14.00">1</text>
</g>
<!-- 3 -->
<g id="node3" class="node">
<title>3</title>
<ellipse fill="red" stroke="black" cx="201.5" cy="-162" rx="27" ry="18"/>
<text text-anchor="middle" x="201.5" y="-158.3" font-family="Times,serif" font-size="14.00">3</text>
</g>
<!-- 1&#45;&#45;3 -->
<g id="edge2" class="edge">
<title>1&#45;&#45;3</title>
<path fill="none" stroke="black" d="M189.25,-288.2C185.31,-270.25 180.59,-241.01 184.5,-216 186.44,-203.59 190.8,-190.12 194.61,-179.86"/>
</g>
<!-- 6 -->
<g id="node5" class="node">
<title>6</title>
<ellipse fill="red" stroke="black" cx="165.5" cy="-18" rx="27" ry="18"/>
<text text-anchor="middle" x="165.5" y="-14.3" font-family="Times,serif" font-size="14.00">6</text>
</g>
<!-- 1&#45;&#45;6 -->
<g id="edge4" class="edge">
<title>1&#45;&#45;6</title>
<path fill="none" stroke="black" d="M188.21,-287.92C185.12,-277.59 181.3,-264.11 178.5,-252 171.17,-220.32 168.4,-212.39 165.5,-180 160.84,-127.94 162.99,-66.03 164.48,-36.44"/>
</g>
<!-- 2 -->
<g id="node6" class="node">
<title>2</title>
<ellipse fill="none" stroke="black" cx="220.5" cy="-234" rx="27" ry="18"/>
<text text-anchor="middle" x="220.5" y="-230.3" font-family="Times,serif" font-size="14.00">2</text>
</g>
<!-- 1&#45;&#45;2 -->
<g id="edge1" class="edge">
<title>1&#45;&#45;2</title>
<path fill="none" stroke="black" d="M199.9,-288.41C204.14,-277.41 209.69,-263.03 213.96,-251.96"/>
</g>
<!-- 5 -->
<g id="node7" class="node">
<title>5</title>
<ellipse fill="none" stroke="black" cx="256.5" cy="-18" rx="27" ry="18"/>
<text text-anchor="middle" x="256.5" y="-14.3" font-family="Times,serif" font-size="14.00">5</text>
</g>
<!-- 1&#45;&#45;5 -->
<g id="edge3" class="edge">
<title>1&#45;&#45;5</title>
<path fill="none" stroke="black" d="M214.14,-294.16C228.97,-285.1 247.81,-270.66 256.5,-252 290.99,-177.92 271.05,-75.68 261.1,-35.84"/>
</g>
<!-- 4 -->
<g id="node4" class="node">
<title>4</title>
<ellipse fill="red" stroke="black" cx="220.5" cy="-90" rx="27" ry="18"/>
<text text-anchor="middle" x="220.5" y="-86.3" font-family="Times,serif" font-size="14.00">4</text>
</g>
<!-- 3&#45;&#45;4 -->
<g id="edge6" class="edge">
<title>3&#45;&#45;4</title>
<path fill="none" stroke="black" d="M206.1,-144.05C209.09,-133.05 212.96,-118.76 215.94,-107.79"/>
</g>
<!-- 3&#45;&#45;6 -->
<g id="edge7" class="edge">
<title>3&#45;&#45;6</title>
<path fill="none" stroke="black" d="M195.71,-144.42C192.2,-134.03 187.78,-120.33 184.5,-108 177.91,-83.27 172.05,-54.2 168.64,-36.18"/>
</g>
<!-- 4&#45;&#45;6 -->
<g id="edge9" class="edge">
<title>4&#45;&#45;6</title>
<path fill="none" stroke="black" d="M208.57,-73.81C199.34,-62.07 186.63,-45.89 177.41,-34.16"/>
</g>
<!-- 4&#45;&#45;5 -->
<g id="edge8" class="edge">
<title>4&#45;&#45;5</title>
<path fill="none" stroke="black" d="M228.85,-72.76C234.67,-61.46 242.39,-46.44 248.2,-35.15"/>
</g>
<!-- 2&#45;&#45;3 -->
<g id="edge5" class="edge">
<title>2&#45;&#45;3</title>
<path fill="none" stroke="black" d="M215.9,-216.05C212.91,-205.05 209.04,-190.76 206.06,-179.79"/>
</g>
</g>
</svg>
