<?xml version="1.0" encoding="UTF-8" standalone="no"?>
<!DOCTYPE svg PUBLIC "-//W3C//DTD SVG 1.1//EN"
 "http://www.w3.org/Graphics/SVG/1.1/DTD/svg11.dtd">
<!-- Generated by graphviz version 2.43.0 (0)
 -->
<!-- Title: G Pages: 1 -->
<svg width="161pt" height="332pt"
 viewBox="0.00 0.00 160.73 332.00" xmlns="http://www.w3.org/2000/svg" xmlns:xlink="http://www.w3.org/1999/xlink">
<g id="graph0" class="graph" transform="scale(1 1) rotate(0) translate(4 328)">
<title>G</title>
<polygon fill="white" stroke="transparent" points="-4,4 -4,-328 156.73,-328 156.73,4 -4,4"/>
<!-- 6 -->
<g id="node1" class="node">
<title>6</title>
<ellipse fill="red" stroke="black" cx="34.73" cy="-18" rx="27" ry="18"/>
<text text-anchor="middle" x="34.73" y="-14.3" font-family="Times,serif" font-size="14.00">6</text>
</g>
<!-- 1 -->
<g id="node2" class="node">
<title>1</title>
<ellipse fill="none" stroke="black" cx="78.73" cy="-306" rx="27" ry="18"/>
<text text-anchor="middle" x="78.73" y="-302.3" font-family="Times,serif" font-size="14.00">1</text>
</g>
<!-- 1&#45;&#45;6 -->
<g id="edge2" class="edge">
<title>1&#45;&#45;6</title>
<path fill="none" stroke="lightgray" d="M58.09,-294.16C43.26,-285.1 24.42,-270.66 15.73,-252 -18.96,-177.49 13.12,-75.07 28.04,-35.51"/>
</g>
<!-- 2 -->
<g id="node3" class="node">
<title>2</title>
<ellipse fill="none" stroke="black" cx="51.73" cy="-234" rx="27" ry="18"/>
<text text-anchor="middle" x="51.73" y="-230.3" font-family="Times,serif" font-size="14.00">2</text>
</g>
<!-- 1&#45;&#45;2 -->
<g id="edge1" class="edge">
<title>1&#45;&#45;2</title>
<path fill="none" stroke="black" d="M72.33,-288.41C68.09,-277.41 62.54,-263.03 58.27,-251.96"/>
</g>
<!-- 3 -->
<g id="node4" class="node">
<title>3</title>
<ellipse fill="none" stroke="black" cx="70.73" cy="-162" rx="27" ry="18"/>
<text text-anchor="middle" x="70.73" y="-158.3" font-family="Times,serif" font-size="14.00">3</text>
</g>
<!-- 1&#45;&#45;3 -->
<g id="edge3" class="edge">
<title>1&#45;&#45;3</title>
<path fill="none" stroke="lightgray" d="M82.98,-288.2C86.92,-270.25 91.64,-241.01 87.73,-216 85.79,-203.59 81.43,-190.12 77.62,-179.86"/>
</g>
<!-- 5 -->
<g id="node5" class="node">
<title>5</title>
<ellipse fill="none" stroke="black" cx="125.73" cy="-18" rx="27" ry="18"/>
<text text-anchor="middle" x="125.73" y="-14.3" font-family="Times,serif" font-size="14.00">5</text>
</g>
<!-- 1&#45;&#45;5 -->
<g id="edge4" class="edge">
<title>1&#45;&#45;5</title>
<path fill="none" stroke="black" d="M87.05,-288.68C91.98,-278.39 97.98,-264.7 101.73,-252 120.11,-189.78 120.38,-172.66 125.73,-108 127.79,-83.05 127.25,-54.04 126.56,-36.1"/>
</g>
<!-- 2&#45;&#45;3 -->
<g id="edge5" class="edge">
<title>2&#45;&#45;3</title>
<path fill="none" stroke="lightgray" d="M56.33,-216.05C59.32,-205.05 63.19,-190.76 66.17,-179.79"/>
</g>
<!-- 3&#45;&#45;6 -->
<g id="edge7" class="edge">
<title>3&#45;&#45;6</title>
<path fill="none" stroke="black" d="M64.94,-144.42C61.43,-134.03 57.01,-120.33 53.73,-108 47.14,-83.27 41.28,-54.2 37.87,-36.18"/>
</g>
<!-- 4 -->
<g id="node6" class="node">
<title>4</title>
<ellipse fill="none" stroke="black" cx="89.73" cy="-90" rx="27" ry="18"/>
<text text-anchor="middle" x="89.73" y="-86.3" font-family="Times,serif" font-size="14.00">4</text>
</g>
<!-- 3&#45;&#45;4 -->
<g id="edge6" class="edge">
<title>3&#45;&#45;4</title>
<path fill="none" stroke="black" d="M75.33,-144.05C78.32,-133.05 82.19,-118.76 85.17,-107.79"/>
</g>
<!-- 4&#45;&#45;6 -->
<g id="edge9" class="edge">
<title>4&#45;&#45;6</title>
<path fill="none" stroke="lightgray" d="M77.8,-73.81C68.57,-62.07 55.86,-45.89 46.64,-34.16"/>
</g>
<!-- 4&#45;&#45;5 -->
<g id="edge8" class="edge">
<title>4&#45;&#45;5</title>
<path fill="none" stroke="black" d="M98.08,-72.76C103.9,-61.46 111.62,-46.44 117.43,-35.15"/>
</g>
</g>
</svg>
